<?xml version="1.0" encoding="UTF-8"?>
<svg id="Layer_1" data-name="Layer 1" xmlns="http://www.w3.org/2000/svg" xmlns:xlink="http://www.w3.org/1999/xlink" viewBox="0 0 400 80">
  <defs>
    <style>
      .cls-1 {
        fill: #616162;
      }

      .cls-2 {
        clip-path: url(#clippath-1);
      }

      .cls-3 {
        clip-path: url(#clippath);
      }

      .cls-4 {
        fill: none;
      }

      .cls-5 {
        fill: #f2f2f2;
      }

      .cls-6 {
        fill: #616163;
      }

      .cls-7 {
        fill: #b42d2f;
      }
    </style>
    <clipPath id="clippath">
      <rect class="cls-4" x="19" y="13.53" width="58.3" height="53.27"/>
    </clipPath>
    <clipPath id="clippath-1">
      <rect class="cls-4" x="19" y="13.53" width="58.3" height="53.27"/>
    </clipPath>
  </defs>
  <g>
    <path class="cls-5" d="M82.42,27.3c-.51-2.22-1.23-4.38-2.18-6.45-3.31-7.21-8.92-11.77-16.39-14.17-5.08-1.63-10.32-2.09-16.22-2.16-1.08,.05-2.76,.08-4.44,.2-3.86,.28-7.65,.91-11.33,2.16-8.05,2.73-13.65,8.02-16.65,16.01-1.36,3.64-2.09,7.41-2.42,11.27-.34,3.88-.34,7.77-.03,11.66,.29,3.56,.9,7.06,2.03,10.45,2.51,7.53,7.26,13.06,14.61,16.24,2.34,1.01,4.77,1.73,7.26,2.23,5.14,1.05,10.34,1.19,15.56,.93,3.59-.18,7.15-.71,10.61-1.72,4.77-1.39,9.04-3.62,12.52-7.24,3.33-3.46,5.39-7.61,6.67-12.19,1.05-3.73,1.51-7.55,1.68-11.42,.23-5.33-.09-10.61-1.29-15.82Z"/>
    <g class="cls-3">
      <g class="cls-2">
        <path class="cls-6" d="M66.04,39.06c.25,.2,.38,.28,.49,.39,2.69,2.77,5.38,5.55,8.09,8.31,.57,.57,.86,1.16,.81,2-.07,1.32-.02,2.64-.02,4.06-1.79-.74-3.48-1.52-5.22-2.15-3.19-1.15-6.37-2.32-9.62-3.26-3.08-.9-6.24-1.56-9.39-2.23-1.41-.3-2.87-.38-4.32-.48-1.72-.12-3.44-.22-5.16-.21-4,.01-7.87,.68-11.46,2.74-2.03-2.25-3.85-4.59-4-7.76,1.2,.18,2.31,.37,3.42,.5,.67,.08,.73-.25,.42-.78-.68-1.19-1.72-2-2.87-2.66-.49-.28-.53-.63-.29-.98,.68-1.03,1.4-2.03,2.18-2.99,.17-.21,.63-.26,.95-.26,4.82-.02,9.63-.03,14.45,0,.72,0,1.1-.17,1.35-.91,.7-2.03,1.52-4.03,2.28-6.04,.07-.2,.09-.41,.16-.81-4.89-.48-9.61,.05-14.26,1.48,2.02-1.68,4.27-2.89,6.85-3.48,4.96-1.15,9.24,.34,13.08,3.4,3.81,3.04,6.97,6.77,10.39,10.23,.28,.28,.42,.81,.42,1.22-.01,2.97-.07,5.95-.13,8.92-.01,.74,.58,.67,1,.77,.07,.02,.36-.46,.36-.71,.03-2.7,.02-5.41,.02-8.29m-3.05,3.3c.1-.03,.21-.05,.31-.08,.04-1.17,.04-2.34,.12-3.51,.05-.74-.18-1.27-.72-1.77-2.37-2.2-4.72-4.43-7.08-6.65-1.2-1.13-2.33-2.33-3.6-3.37-1.52-1.25-2.52-1.03-2.95,.57-.47,1.78-.74,3.62-1.03,5.44-.04,.28,.2,.74,.45,.9,1.43,.9,2.91,1.74,4.37,2.6,1.9,1.12,3.8,2.25,5.7,3.35,1.47,.85,2.94,1.68,4.42,2.52m10.1,7.42c0-1.2,.33-2.19-.69-3.09-1.55-1.38-2.95-2.92-4.44-4.37-.22-.21-.59-.28-.89-.42-.07,.27-.17,.54-.2,.82-.04,.27,.02,.54-.01,.81-.14,1.03,.12,1.83,1.14,2.33,.42,.2,.75,.6,1.13,.89,1.27,.98,2.54,1.95,3.95,3.03m-34.63-8.68c.72-.18,1.47-.25,2.11-.55,1.15-.53,2.29-1.12,2.8-2.42,.27-.7,.11-.96-.62-.98-2.05-.05-3.73,.67-4.9,2.39-.25,.36-.4,.79-.6,1.18,.39,.12,.78,.24,1.2,.37"/>
        <path class="cls-7" d="M25.49,48.06c-.97-1.63-2.1-3.19-2.88-4.91-1.18-2.61-1.8-5.4-1.68-8.3,.15-3.86,1.36-7.39,3.56-10.56,2.16-3.11,5.03-5.39,8.47-6.93,2.39-1.07,4.89-1.67,7.54-1.86,5.06-.35,9.64,.91,13.82,3.69,3.17,2.1,5.49,4.93,6.96,8.48-.45-.5-.89-1-1.34-1.49-2.86-3.15-6.41-5.12-10.51-6.13-2.58-.64-5.19-.69-7.84-.39-3.42,.39-6.54,1.56-9.34,3.5-4.27,2.95-7.07,6.95-8.17,12.07-.94,4.35-.36,8.49,1.66,12.44,.03,.06,.03,.15,.04,.22-.1,.05-.19,.1-.29,.16"/>
        <polygon class="cls-6" points="35.34 58.1 30.9 58.1 30.9 50.71 35.17 50.71 35.17 52.07 32.57 52.07 32.57 53.71 34.99 53.71 34.99 55.06 32.57 55.06 32.57 56.75 35.34 56.75 35.34 58.1"/>
        <path class="cls-6" d="M44.27,58.1h-1.91l-1.15-1.9c-.09-.14-.17-.27-.25-.39-.08-.11-.16-.21-.24-.29-.08-.08-.16-.14-.25-.19-.09-.04-.18-.06-.29-.06h-.45v2.83h-1.66v-7.39h2.64c1.79,0,2.69,.67,2.69,2.01,0,.26-.04,.5-.12,.71-.08,.22-.19,.41-.34,.59-.14,.18-.32,.33-.52,.45-.2,.13-.43,.23-.68,.3v.02c.11,.03,.22,.09,.32,.17,.1,.08,.2,.17,.3,.27,.1,.1,.19,.21,.28,.33,.09,.12,.17,.23,.24,.35l1.4,2.19Zm-4.54-6.14v2.06h.72c.36,0,.64-.1,.86-.31,.22-.21,.33-.47,.33-.78,0-.65-.39-.97-1.16-.97h-.75Z"/>
        <path class="cls-6" d="M54.94,58.1h-1.64v-4.42c0-.48,.02-1,.06-1.58h-.04c-.09,.45-.16,.78-.23,.98l-1.73,5.03h-1.36l-1.76-4.97c-.05-.13-.13-.48-.23-1.03h-.05c.04,.73,.07,1.37,.07,1.92v4.09h-1.5v-7.39h2.44l1.51,4.38c.12,.35,.21,.7,.26,1.06h.03c.09-.41,.19-.76,.29-1.07l1.51-4.37h2.38v7.39Z"/>
        <path class="cls-6" d="M63.47,57.84c-.54,.26-1.24,.39-2.11,.39-1.13,0-2.03-.33-2.67-1-.65-.67-.97-1.55-.97-2.66,0-1.18,.37-2.14,1.1-2.88,.73-.74,1.68-1.1,2.84-1.1,.72,0,1.33,.09,1.82,.27v1.6c-.49-.3-1.06-.44-1.69-.44-.69,0-1.25,.22-1.68,.65-.43,.44-.64,1.03-.64,1.77s.2,1.28,.6,1.71c.4,.42,.94,.64,1.62,.64s1.24-.16,1.78-.47v1.52Z"/>
        <path class="cls-7" d="M31.42,62.38c0,.13,0,.25-.01,.39-.01,.2-.1,.38-.25,.55-.25,.26-.45,.35-.63,.35-.2,0-.43-.09-.69-.28l.04-.08c.12,.05,.23,.07,.35,.07,.27,0,.51-.13,.74-.32,.18-.19,.31-.38,.31-.52,0-.09-.09-.21-.2-.33,.02-.1,.05-.22,.09-.35,.33-.14,.67-.26,1.03-.38,.03,.21,.1,.41,.36,.53,.16-.25,.33-.49,.58-.71,.18-.16,.39-.29,.64-.29,.41,0,.65,.3,.65,.63,0,.16-.06,.34-.15,.51h.38v.37h-.07c-.29,0-.55-.03-.85-.1-.17,.05-.37,.1-.66,.1-.21,0-.39-.03-.53-.09-.09,.12-.17,.26-.24,.39l-.06-.03c.03-.14,.08-.29,.14-.45-.17-.13-.25-.27-.27-.44-.28,.09-.52,.18-.7,.27,.02,.07,.03,.14,.03,.21m1.8-.22c.29,0,.59-.07,.74-.13,.14-.06,.23-.13,.23-.21-.04-.25-.28-.43-.53-.43-.34,0-.65,.28-.96,.71,.1,.03,.27,.06,.52,.06"/>
        <path class="cls-7" d="M34.71,62.16c.21,0,.38-.15,.48-.51,.03-.11,.11-.23,.21-.35,.11-.1,.22-.17,.36-.17,.35,0,.55,.48,.6,.98-.06,.26-.17,.37-.3,.37-.28,0-.57-.13-.85-.34h-.02c-.07,.25-.24,.37-.49,.37h-.05c-.16,0-.2-.11-.2-.19,0-.07,.05-.17,.2-.17h.06Zm1-.11c.11,.05,.23,.08,.34,.08,.04,0,.08,0,.09-.03-.08-.43-.27-.62-.45-.62-.16,0-.3,.09-.38,.28,.09,.13,.23,.22,.4,.29"/>
        <path class="cls-7" d="M39.91,62.53h-.05c-.26,0-.47-.11-.58-.47h-.01c-.02,.11-.08,.2-.21,.27-.19,.11-.38,.19-.57,.19-.32,0-.5-.19-.5-.53,0-.07,0-.14,0-.21h.11c.01,.23,.13,.37,.4,.37,.15,0,.33-.07,.47-.14,.11-.06,.19-.15,.19-.21,0-.19-.1-.57-.24-1.06,.07-.1,.13-.2,.2-.29h.02c.11,.42,.19,.86,.27,1.28,.05,.28,.24,.43,.45,.43h.05v.37Z"/>
        <path class="cls-7" d="M39.96,62.16c.24,0,.44,0,.56-.05,.1-.04,.16-.08,.16-.13,0-.13-.14-.41-.29-.71,.07-.12,.14-.23,.21-.32h.01c.13,.23,.29,.59,.29,.87,0,.21-.09,.38-.2,.53-.13,.13-.33,.17-.77,.17h-.03c-.16,0-.2-.11-.2-.19,0-.07,.05-.17,.2-.17h.05Zm.28,1.5c-.12-.11-.22-.2-.33-.3,.07-.1,.15-.2,.23-.27,.12,.09,.21,.19,.33,.31-.08,.11-.14,.19-.22,.26m.55-.04c-.12-.11-.22-.2-.33-.3,.07-.1,.15-.2,.23-.27,.12,.09,.21,.19,.33,.31-.08,.11-.14,.19-.22,.26"/>
        <path class="cls-7" d="M43.36,62.53h-.05c-.26,0-.47-.11-.58-.47h-.01c-.02,.11-.08,.2-.21,.27-.19,.11-.38,.19-.57,.19-.32,0-.5-.19-.5-.53,0-.07,0-.14,0-.21h.11c.01,.23,.13,.37,.4,.37,.15,0,.33-.07,.47-.14,.11-.06,.19-.15,.19-.21,0-.19-.1-.57-.24-1.06,.07-.1,.13-.2,.2-.29h.02c.11,.42,.19,.86,.27,1.28,.05,.28,.24,.43,.45,.43h.05v.37Z"/>
        <path class="cls-7" d="M43.54,62.16c.46,0,.94-.16,1.52-.52h0c-.33-.13-.63-.21-.9-.21-.16,0-.28,.05-.36,.14l.03,.14-.09,.26h-.03l-.14-.38c.02-.32,.28-.51,.62-.51,.19,0,.49,.07,.94,.25,.14,.05,.31,.09,.49,.09h.23s0,0,0,0l-.15,.3c-.24,0-.4,.05-.49,.11l-.48,.31c-.38,.25-.79,.38-1.24,.38h-.15c-.16,0-.2-.11-.2-.19,0-.07,.05-.17,.2-.17h.17Z"/>
        <path class="cls-7" d="M49.76,59.57c.03,.49,.04,1.04,.04,1.8,0,.21,.01,.44,.11,.62,.06,.11,.19,.18,.32,.18h.05v.37h-.07c-.29,0-.5-.15-.59-.53h-.01c-.07,.11-.19,.23-.4,.33-.3,.15-.61,.2-.89,.2-.42,0-.88-.25-.88-.9,0-.22,.06-.43,.16-.62l.12,.04c-.06,.13-.1,.28-.1,.42,0,.45,.33,.67,.78,.67,.36,0,.63-.1,.81-.19,.17-.08,.27-.17,.32-.25,.01-.05,.01-.11,.01-.16,0-.54-.05-1.18-.09-1.7,.08-.09,.17-.19,.27-.28h.02Zm-.9,.96h-.03c-.17,.05-.27,.14-.31,.26h.23c.2,0,.29,.08,.29,.22,0,.28-.27,.41-.52,.41-.07,0-.13,0-.19-.01l-.19-.11v-.02c.37-.01,.73-.11,.73-.22,0-.03-.07-.03-.26-.03-.18,0-.25,0-.25-.04v-.11c0-.12,.06-.25,.18-.39,.11-.13,.25-.23,.32-.23,.05,0,.07,.02,.07,.07,0,.05-.03,.13-.06,.21h-.01Z"/>
        <path class="cls-7" d="M52.49,62.53h-.06c-.35,0-.54-.19-.74-.46-.09-.12-.18-.24-.25-.32h-.01c0,.45-.25,.78-1.06,.78h-.08c-.16,0-.2-.11-.2-.19,0-.07,.05-.17,.2-.17h.11c.23,0,.51-.04,.69-.17,.06-.04,.14-.1,.14-.14,0-.06-.03-.13-.06-.19-.12-.26-.4-.56-.7-.87-.08-.08-.14-.15-.18-.19,0-.05-.02-.1-.02-.16,0-.08,.03-.16,.08-.25,.02-.04,.07-.08,.1-.11,.3-.19,.97-.42,1.76-.67v.02c-.05,.12-.12,.24-.21,.35-.17,.04-.42,.13-.65,.21-.34,.13-.67,.26-.86,.36h0c.15,.11,.32,.18,.44,.23l-.09,.14c.31,.28,.67,.68,1.05,1.13,.16,.19,.32,.29,.55,.29h.05v.37Z"/>
        <path class="cls-7" d="M55.41,62.53h-.07c-.35,0-.52-.11-.59-.27h-.02c-.16,.19-.32,.27-.49,.27-.12,0-.27-.04-.31-.24h-.01c-.13,.14-.28,.24-.49,.24-.16,0-.26-.07-.27-.24h-.01c-.17,.2-.41,.24-.61,.24h-.05c-.16,0-.2-.11-.2-.19,0-.07,.05-.17,.2-.17h.1c.26,0,.46-.07,.6-.27l.14-.22,.22-.08h.01c-.11,.2-.19,.34-.19,.42s.07,.14,.15,.14c.08,0,.17-.03,.25-.09,.07-.05,.14-.15,.19-.25l.07-.17,.22-.1h.01c-.09,.23-.12,.33-.12,.44,0,.08,.05,.17,.16,.17,.09,0,.15-.03,.2-.06,.09-.06,.13-.15,.17-.27,.01-.05,.03-.1,.06-.23l.22-.15h.01c-.04,.13-.07,.29-.07,.4,0,.23,.2,.31,.47,.31h.06v.37Z"/>
        <path class="cls-7" d="M55.47,62.16c.09,0,.2-.01,.32-.08,.1-.06,.15-.16,.15-.31,0-.46-.04-.96-.08-1.48-.01-.13-.03-.25-.03-.36,0-.06,.03-.13,.09-.19,.04-.05,.09-.1,.16-.16h.02c0,.2,.08,.42,.23,.67-.05,.05-.11,.1-.18,.15,.01,.33,.04,.67,.04,.99s-.03,.55-.11,.72c-.06,.15-.13,.27-.26,.33-.11,.06-.25,.09-.36,.09h-.04c-.16,0-.2-.11-.2-.19,0-.07,.05-.17,.2-.17h.06Z"/>
        <path class="cls-7" d="M60.55,62.16v.37h-.17c0,.08,.01,.15,.01,.21,0,.09-.09,.3-.13,.36-.37,.33-.91,.53-1.33,.53-.37,0-.62-.13-.78-.31-.18-.2-.25-.47-.25-.8,0-.29,.11-.67,.27-.94l.11,.05c-.12,.29-.17,.53-.17,.72,0,.24,.08,.47,.23,.62,.17,.18,.42,.27,.69,.27s.57-.08,.91-.25c.13-.07,.23-.14,.26-.2-.07-.14-.38-.26-.83-.26l-.02-.04,.2-.33h1.01Zm-1.74,2.3c-.12-.11-.22-.2-.33-.3,.07-.1,.15-.2,.23-.27,.12,.09,.21,.19,.33,.31-.08,.11-.14,.19-.22,.26m.55-.04c-.12-.11-.22-.2-.33-.3,.07-.1,.15-.2,.23-.27,.12,.09,.21,.19,.33,.31-.08,.11-.14,.19-.22,.26"/>
        <path class="cls-7" d="M60.61,62.16c.22,0,.45-.09,.49-.25l.08-.31,.2-.14,.02,.02c-.04,.15-.06,.27-.06,.33,0,.1,.03,.18,.09,.24,.09,.07,.2,.11,.35,.11h.05v.37h-.07c-.28,0-.49-.08-.59-.29h-.01c-.1,.19-.32,.29-.57,.29h-.05c-.16,0-.2-.11-.2-.19,0-.07,.05-.17,.2-.17h.06Zm.53,.9c.12,.09,.23,.19,.34,.31-.06,.1-.14,.2-.24,.28-.11-.11-.22-.2-.34-.29,.08-.1,.15-.2,.23-.29"/>
        <path class="cls-7" d="M62.04,62.16l.22-.26c.04-.15,.04-.27,.04-.57,0-.37-.04-.98-.07-1.31,0-.09-.02-.19-.02-.28,0-.13,.08-.22,.22-.33l.02,.02c0,.17,.08,.37,.24,.63l-.19,.14c.01,.31,.03,.62,.03,.92,0,.25-.04,.42-.1,.57h.01c.21-.23,.41-.41,.6-.52,.16-.1,.35-.16,.53-.16,.36,0,.68,.3,.68,.7,0,.15-.07,.29-.15,.42,.07,.01,.19,.01,.29,.01h.11v.37h-.07c-.33,0-.63-.03-.92-.09-.39,.07-.9,.09-1.49,.09h-.2c-.16,0-.2-.11-.2-.19,0-.07,.05-.17,.2-.17h.2Zm.51,0c.75,0,1.35-.05,1.48-.27,0-.24-.27-.49-.59-.49-.37,0-.7,.27-1.15,.75h.27Z"/>
        <path class="cls-7" d="M64.59,62.16c.09,0,.2-.01,.32-.08,.1-.06,.15-.16,.15-.31,0-.46-.04-.96-.08-1.48-.01-.13-.03-.25-.03-.36,0-.06,.03-.13,.09-.19,.04-.05,.09-.1,.16-.16h.02c0,.2,.08,.42,.23,.67-.05,.05-.11,.1-.18,.15,.01,.33,.04,.67,.04,.99s-.03,.55-.11,.72c-.06,.15-.13,.27-.26,.33-.11,.06-.25,.09-.36,.09h-.04c-.16,0-.2-.11-.2-.19,0-.07,.05-.17,.2-.17h.06Z"/>
        <path class="cls-7" d="M65.93,62.58c.03-.18,.03-.38,.03-.57v-.28c0-.52-.06-1.28-.1-1.78,.08-.1,.19-.22,.28-.3h.03c.06,.63,.07,1.35,.07,2.02,0,.17,0,.35-.02,.47,0,.16-.09,.28-.25,.46l-.04-.02Z"/>
        <path class="cls-7" d="M68.85,61.55c.16,.39,.31,.62,.64,.62h.05v.37h-.06c-.13,0-.22-.03-.29-.09h-.01s0,.07,0,.1c0,.13-.04,.31-.11,.44-.23,.4-.47,.57-.68,.57s-.48-.1-.71-.22l.04-.1c.08,.04,.18,.06,.33,.06,.38,0,.88-.43,.95-.86-.01-.03-.04-.08-.08-.13-.11-.16-.18-.29-.25-.43,.06-.13,.11-.24,.16-.33h.02Zm-.25-1c.12,.09,.23,.19,.34,.31-.06,.1-.14,.2-.24,.28-.11-.11-.22-.2-.34-.29,.08-.1,.15-.2,.23-.29"/>
        <path class="cls-7" d="M71.32,59.46c-.06,.12-.14,.23-.21,.35-.15,.04-.31,.09-.46,.14-.3,.11-.61,.23-.94,.37h0s.47,.19,.47,.19l-.07,.14c.44,.36,.73,.72,.73,1.02,0,.27-.07,.48-.18,.59-.18,.16-.47,.27-1,.27h-.11c-.16,0-.2-.11-.2-.19,0-.07,.05-.17,.2-.17h.18c.29,0,.57-.03,.76-.15,.1-.06,.16-.12,.16-.15,0-.13-.09-.28-.2-.43-.13-.17-.39-.45-.86-.81-.08-.06-.1-.17-.1-.26,0-.06,.03-.12,.07-.18,.03-.05,.09-.11,.21-.17,.33-.17,.88-.36,1.54-.57l.02,.02Z"/>
        <path class="cls-7" d="M71.86,61.55c.16,.39,.31,.62,.64,.62h.05v.37h-.06c-.13,0-.22-.03-.29-.09h-.01s0,.07,0,.1c0,.13-.04,.31-.11,.44-.23,.4-.47,.57-.68,.57s-.48-.1-.71-.22l.04-.1c.08,.04,.18,.06,.33,.06,.38,0,.88-.43,.95-.86-.01-.03-.04-.08-.08-.13-.11-.16-.18-.29-.25-.43,.06-.13,.11-.24,.16-.33h.02Z"/>
        <path class="cls-7" d="M73.25,62.28c-.2,.17-.38,.25-.65,.25h-.04c-.16,0-.2-.11-.2-.19,0-.07,.05-.17,.2-.17h.03c.29,0,.47-.08,.65-.2-.05-.55-.06-1.12-.06-1.57,0-.11-.02-.3-.02-.43,0-.09,.02-.17,.09-.25,.04-.05,.1-.1,.16-.15l.03,.02c0,.05,0,.09,0,.12,0,.2,.1,.39,.22,.58l-.21,.15c0,.9,.01,1.14,.05,1.39h.01c.12-.06,.23-.09,.37-.09,.12,0,.24,.06,.33,.16,.09,.1,.14,.25,.14,.39,0,.35-.24,.55-.45,.55-.27,0-.49-.21-.6-.54h-.01Zm.75,.22c.05,0,.1-.02,.14-.05,0-.1-.04-.19-.11-.27-.05-.07-.14-.13-.27-.13-.08,0-.17,.02-.23,.06,.07,.22,.28,.38,.47,.38"/>
        <path class="cls-7" d="M74.84,62.58c.03-.18,.03-.38,.03-.57v-.28c0-.52-.06-1.28-.1-1.78,.08-.1,.19-.22,.28-.3h.03c.06,.63,.07,1.35,.07,2.02,0,.17,0,.35-.02,.47,0,.16-.09,.28-.25,.46l-.04-.02Z"/>
      </g>
    </g>
  </g>
  <g>
    <path class="cls-1" d="M105.26,29.93h2.42l-.06,5.35h-14.84v-2.05l2.65-.77-.54,.83v-15.95l.51,.8-2.62-.71v-2.05l6.09-.14h8.43v5.13h-2.42l-.57-2.76,.77,.57h-6.75l.63-.63v6.75l-.63-.63h6.75v2.82h-6.75l.63-.71v7.2l-.63-.63h7.09l-.77,.63,.6-3.05Z"/>
    <path class="cls-1" d="M115.11,35.28v-2.05l2.62-.74-.51,.8v-15.95l.71,.85-2.82-.77v-2.05l6.35-.14h2.76c2.28,0,4,.47,5.15,1.42,1.16,.95,1.74,2.32,1.74,4.1,0,1.59-.49,2.91-1.47,3.96-.98,1.04-2.51,1.68-4.6,1.91l.03-.46c.74,.02,1.35,.13,1.82,.34,.47,.21,.87,.5,1.18,.87,.31,.37,.6,.81,.87,1.32l2.28,4.38-1.17-.71,2.62,.85v2.05h-4.67l-2.56-5.5c-.34-.72-.64-1.28-.88-1.67-.25-.39-.55-.65-.91-.8-.36-.14-.88-.2-1.57-.18h-1.48l.68-.57v6.72l-.54-.83,2.88,.77v2.05h-8.51Zm6.18-9.97l-.68-1h2.36c1.33,0,2.33-.27,2.99-.83,.66-.55,1-1.37,1-2.45,0-.91-.27-1.62-.8-2.14-.53-.51-1.35-.77-2.45-.77h-3.1l.68-.63v7.8Z"/>
    <path class="cls-1" d="M161.89,17.29l-2.65,.91,.57-1.05v16.14l-.57-.83,2.65,.77v2.05h-7.94v-2.05l2.76-.8-.66,.85v-13.7l.6,.03-5.21,10.45-2.56,.14-5.01-10.65h.6v13.72l-.46-.77,2.56,.71v2.05h-7.49v-2.05l2.65-.77-.54,.83V17.14l.54,1-2.65-.71v-2.05l7.09-.14,4.7,10.91h-.48l4.93-10.76,6.58-.14v2.05Z"/>
    <path class="cls-1" d="M177.61,35.62c-1.56,0-2.98-.38-4.27-1.15-1.29-.77-2.33-1.92-3.1-3.45s-1.17-3.41-1.17-5.65,.38-4.08,1.14-5.64c.76-1.56,1.83-2.75,3.22-3.59s3.01-1.25,4.87-1.25c.99,0,2,.12,3.05,.37,1.04,.25,2.16,.62,3.36,1.11l-.26,5.13h-2.42l-.68-3.33,.68,.65c-.66-.27-1.3-.46-1.91-.6-.61-.13-1.17-.2-1.68-.2-1.08,0-1.99,.27-2.73,.81s-1.3,1.32-1.68,2.35c-.38,1.02-.57,2.25-.57,3.67,0,1.67,.22,3.06,.67,4.17,.45,1.11,1.06,1.94,1.85,2.48,.79,.54,1.67,.81,2.66,.81,.74,0,1.52-.16,2.35-.47,.83-.31,1.66-.79,2.49-1.44l1.51,2.36c-1.18,.95-2.4,1.66-3.66,2.14s-2.5,.71-3.72,.71Z"/>
    <path class="cls-1" d="M202.01,35.28v-2.05l2.53-.74-.43,.6v-15.75l.57,.83-2.68-.74v-2.05l6.09-.14h8.29v5.18h-2.42l-.54-2.68,.74,.43h-6.61l.63-.63v6.81l-.63-.57h6.63v2.93h-6.63l.63-.65v7.03l-.51-.6,3.1,.74v2.05h-8.77Z"/>
    <path class="cls-1" d="M229.2,19.73c2.24,0,3.99,.66,5.24,1.99,1.25,1.33,1.88,3.22,1.88,5.67,0,1.71-.3,3.17-.91,4.4-.61,1.22-1.48,2.17-2.62,2.83-1.14,.66-2.51,1-4.1,1-2.24,0-3.97-.66-5.2-1.99-1.22-1.33-1.84-3.22-1.84-5.67,0-1.71,.3-3.18,.9-4.4,.6-1.22,1.46-2.17,2.58-2.83,1.12-.66,2.48-1,4.07-1Zm-.2,2.85c-1.08,0-1.89,.42-2.42,1.27-.53,.85-.8,2.15-.8,3.92s.26,3.04,.77,3.83,1.29,1.18,2.33,1.18c.76,0,1.38-.19,1.85-.57,.47-.38,.83-.96,1.08-1.74,.25-.78,.37-1.74,.37-2.88,0-1.73-.27-2.99-.8-3.8-.53-.81-1.33-1.21-2.39-1.21Z"/>
    <path class="cls-1" d="M243.01,35.28v-2.05l2.31-.65-.4,.6v-10.93l.46,.68-2.36-.71v-2.05l5.01-.23,.51,2.71-.51-.11c.85-.89,1.7-1.58,2.53-2.06,.84-.48,1.73-.73,2.68-.73,.61,0,1.25,.1,1.94,.29l-.26,5.27h-2.31l-.43-3.08,.37,.77c-.11-.04-.23-.07-.36-.09-.12-.02-.24-.03-.36-.03-.59,0-1.17,.18-1.75,.54-.58,.36-1.08,.83-1.49,1.39l.31-1.08v9.45l-.46-.6,2.82,.65v2.05h-8.26Z"/>
    <path class="cls-1" d="M275.84,22.38l-.57,.14c.91-.93,1.88-1.63,2.9-2.09,1.02-.46,2-.7,2.93-.7,1.2,0,2.2,.39,3,1.18,.81,.79,1.21,2,1.21,3.63v8.57l-.37-.57,2.28,.68v2.05h-7.49v-2.05l2.08-.63-.48,.6v-7.77c0-.91-.19-1.58-.56-2.02-.37-.44-.85-.66-1.44-.66-.49,0-1.04,.15-1.65,.46-.61,.3-1.22,.75-1.82,1.34l.29-.88c.04,.15,.06,.29,.06,.41v9.04l-.37-.57,1.99,.68v2.05h-7.23v-2.05l2.08-.63-.46,.6v-7.77c0-.91-.19-1.58-.57-2.02-.38-.44-.86-.66-1.42-.66-.49,0-1.04,.14-1.65,.43-.61,.29-1.2,.71-1.76,1.28l.26-.6v9.34l-.37-.6,1.99,.63v2.05h-7.52v-2.05l2.39-.68-.48,.57v-10.85l.48,.65-2.39-.71v-2.05l5.01-.23,.51,2.73-.51-.2c.89-.89,1.85-1.57,2.86-2.04,1.01-.46,1.99-.7,2.92-.7,.87,0,1.65,.21,2.33,.64s1.2,1.1,1.54,2.01Z"/>
    <path class="cls-1" d="M299.14,35.62c-1.27,0-2.33-.41-3.19-1.24-.86-.83-1.28-2.07-1.28-3.74v-8.31l.37,.57-2.25-.68v-2.05l5.87-.2v10.02c0,.89,.2,1.55,.6,1.98,.4,.43,.93,.64,1.59,.64,.51,0,1.08-.14,1.69-.41,.62-.28,1.23-.71,1.84-1.3l-.29,.71v-9.37l.37,.66-2.25-.68v-2.05l5.87-.2v13.21l-.48-.68,2.39,.74v2.02l-5.01,.23-.54-2.79,.57,.2c-.95,.91-1.93,1.59-2.95,2.05-1.01,.46-1.99,.68-2.92,.68Z"/>
    <path class="cls-1" d="M321.77,32.95l-.29-.34,2.19,.63v2.05h-7.77v-2.05l2.19-.63-.31,.34V15.72l.26,.28-2.14-.6v-2.05l5.87-.23v19.82Z"/>
    <path class="cls-1" d="M342.64,33.26l-.54-.83,2.45,.8v2.05l-4.98,.2-.54-2.7,.29,.09c-.76,.91-1.59,1.6-2.49,2.06-.9,.46-1.82,.7-2.75,.7-1.21,0-2.22-.39-3.02-1.17s-1.2-1.9-1.2-3.36c0-1.08,.23-1.94,.7-2.58,.46-.64,1.14-1.1,2.04-1.38,.89-.29,1.97-.43,3.25-.43h3.08l-.26,.31v-1.88c0-.89-.21-1.53-.64-1.91-.43-.38-1.05-.57-1.87-.57-.4,0-.83,.03-1.3,.1-.47,.07-.95,.18-1.47,.36l.4-.46-.37,2.36h-2.48l-.23-4.21c1.29-.34,2.47-.61,3.55-.8,1.07-.19,2.05-.29,2.95-.29,1.76,0,3.11,.38,4.04,1.14,.93,.76,1.4,1.94,1.4,3.53v8.86Zm-8.77-2.53c0,.68,.17,1.2,.5,1.54s.75,.51,1.24,.51,1.05-.15,1.61-.46c.56-.3,1.11-.71,1.64-1.22l-.2,.68v-3.25l.29,.28h-2.45c-.99,0-1.67,.16-2.05,.47-.38,.31-.57,.79-.57,1.44Z"/>
    <path class="cls-1" d="M350.7,35.28v-2.05l2.31-.65-.4,.6v-10.93l.46,.68-2.36-.71v-2.05l5.01-.23,.51,2.71-.51-.11c.85-.89,1.7-1.58,2.53-2.06,.84-.48,1.73-.73,2.68-.73,.61,0,1.25,.1,1.94,.29l-.26,5.27h-2.31l-.43-3.08,.37,.77c-.11-.04-.23-.07-.36-.09-.12-.02-.24-.03-.36-.03-.59,0-1.17,.18-1.75,.54-.58,.36-1.08,.83-1.49,1.39l.31-1.08v9.45l-.46-.6,2.82,.65v2.05h-8.26Z"/>
    <path class="cls-1" d="M368.95,41.97l.37-2.82c.3,.04,.58,.07,.84,.09,.26,.02,.5,.03,.73,.03,.84,0,1.51-.17,2.04-.5,.52-.33,.98-.84,1.37-1.54,.39-.69,.77-1.59,1.15-2.69l-.14,1.34-5.47-13.58,.37,.34-1.65-.4v-2.05l7.09-.23v2.02l-1.99,.54,.2-.34,3.62,10.65-.97-.2,3.22-10.39,.2,.4-1.96-.4v-2.05l6.72-.23v2.02l-1.79,.57,.54-.34-4.7,13.01c-.4,1.1-.83,2.08-1.28,2.93-.46,.85-.97,1.58-1.55,2.18-.58,.6-1.25,1.05-2.02,1.37-.77,.31-1.67,.47-2.69,.47-.67,0-1.41-.07-2.22-.2Z"/>
    <path class="cls-7" d="M92.53,60.91v-1.54l1.97-.55-.38,.6v-11.96l.53,.64-2.11-.58v-1.54l4.76-.11h2.07c1.71,0,3,.36,3.87,1.07,.87,.71,1.3,1.74,1.3,3.08,0,1.2-.37,2.19-1.1,2.97s-1.88,1.26-3.45,1.43l.02-.34c.55,.01,1.01,.1,1.37,.26,.36,.16,.65,.37,.89,.65,.23,.28,.45,.61,.65,.99l1.71,3.29-.88-.53,1.96,.64v1.54h-3.5l-1.92-4.12c-.26-.54-.48-.96-.66-1.25-.19-.29-.41-.49-.68-.6s-.66-.15-1.17-.14h-1.11l.51-.43v5.04l-.41-.62,2.16,.58v1.54h-6.39Zm4.63-7.47l-.51-.75h1.77c1,0,1.74-.21,2.24-.62,.5-.41,.75-1.03,.75-1.84,0-.68-.2-1.22-.6-1.6-.4-.38-1.01-.58-1.84-.58h-2.33l.51-.47v5.85Z"/>
    <path class="cls-7" d="M125.86,59.48l-.79-.7,1.84,.6v1.54h-6.13v-1.54l1.86-.53-.3,.43-.85-2.78,.47,.38h-5.64l.36-.36-.92,2.71-.09-.32,1.71,.47v1.54h-5.57v-1.54l1.77-.55-.68,.6,5.04-13.5,3.14-.08,4.78,13.65Zm-8.78-4.31l-.21-.41h4.59l-.3,.47-2.22-7.71h.71l-2.56,7.65Z"/>
    <path class="cls-7" d="M139.41,47.41l-1.88,.64,.32-.47v11.68l-.32-.45,1.88,.55v1.54h-6.19v-1.54l1.86-.53-.28,.43v-11.68l.38,.47-1.97-.53v-1.54l6.19-.11v1.54Z"/>
    <path class="cls-7" d="M155.72,56.38h1.81v4.53h-10.7v-1.54l1.92-.55-.34,.6v-11.96l.34,.58-1.92-.51v-1.54l6.34-.11v1.54l-2.03,.62,.32-.58v11.72l-.47-.47h4.66l-.43,.49,.49-2.82Z"/>
    <path class="cls-7" d="M178.34,45.98l5.62-.11v1.54l-1.94,.55,.7-.79-3.87,13.75h-2.88l-3.2-11.36h.55l-3.33,11.36h-2.86l-3.55-13.5,.3,.49-1.58-.41v-1.54l5.89-.11v1.54l-1.86,.6,.36-.58,2.41,10.74-.62-.02,3.35-12.19,2.82-.08,3.25,12.24-.62,.02,2.73-10.7,.26,.55-1.94-.47v-1.54Z"/>
    <path class="cls-7" d="M202.21,59.48l-.79-.7,1.84,.6v1.54h-6.13v-1.54l1.86-.53-.3,.43-.85-2.78,.47,.38h-5.64l.36-.36-.92,2.71-.09-.32,1.71,.47v1.54h-5.57v-1.54l1.77-.55-.68,.6,5.04-13.5,3.14-.08,4.78,13.65Zm-8.78-4.31l-.21-.41h4.59l-.3,.47-2.22-7.71h.71l-2.56,7.65Z"/>
    <path class="cls-7" d="M211.42,60.91v-1.54l2.05-.6-.41,.64v-4.42l.26,1.05-4.42-8.48,.55,.47-1.69-.51v-1.54l5.96-.11v1.54l-1.9,.51,.24-.53,3.08,6.51h-.58l3.12-6.39,.24,.53-1.96-.53v-1.54l5.55-.11v1.54l-1.71,.51,.6-.45-4.51,8.56,.23-1.05v4.42l-.43-.64,2.05,.6v1.54h-6.32Z"/>
    <path class="cls-7" d="M237.96,60.91v-1.54l1.99-.58-.41,.62v-11.96l.49,.64-2.07-.58v-1.54l6.19-.11v1.54l-2.03,.68,.47-.66v5.19l-.47-.47h6.96l-.47,.47v-5.17l.47,.62-2.05-.55v-1.54l6.19-.11v1.54l-1.99,.66,.43-.64v11.98l-.43-.62,1.99,.58v1.54h-6.19v-1.54l1.97-.58-.38,.62v-5.55l.47,.49h-6.96l.47-.49v5.55l-.38-.62,1.94,.58v1.54h-6.19Z"/>
    <path class="cls-7" d="M267.41,61.17c-1.35,0-2.52-.29-3.51-.86-.99-.58-1.76-1.43-2.3-2.55-.54-1.12-.81-2.51-.81-4.16,0-1.32,.17-2.48,.51-3.48,.34-1,.82-1.83,1.45-2.49,.63-.66,1.37-1.16,2.23-1.49,.86-.33,1.82-.5,2.87-.5s1.98,.16,2.81,.49c.83,.33,1.54,.81,2.14,1.43,.59,.63,1.05,1.41,1.38,2.34s.49,2.01,.49,3.23c0,1.67-.3,3.1-.91,4.3-.61,1.2-1.45,2.13-2.53,2.78s-2.36,.97-3.82,.97Zm.24-2.35c.71,0,1.35-.17,1.9-.52s1-.93,1.33-1.75c.33-.82,.5-1.92,.5-3.3,0-1.28-.15-2.31-.46-3.09-.31-.78-.73-1.33-1.27-1.68s-1.18-.51-1.92-.51-1.35,.17-1.9,.51-.99,.91-1.29,1.71-.46,1.89-.46,3.29c0,1.28,.14,2.31,.43,3.09s.69,1.35,1.23,1.71c.53,.36,1.17,.54,1.91,.54Z"/>
    <path class="cls-7" d="M285.48,49.66c0,.41,.14,.76,.43,1.03,.29,.27,.65,.5,1.11,.69s.96,.38,1.52,.55c.55,.18,1.1,.38,1.64,.6,.54,.22,1.04,.5,1.51,.83,.46,.33,.83,.76,1.11,1.27,.28,.51,.42,1.15,.42,1.92,0,1.05-.27,1.92-.82,2.61-.55,.68-1.28,1.19-2.19,1.53-.91,.33-1.92,.5-3.03,.5-.75,0-1.53-.08-2.32-.22-.79-.15-1.57-.37-2.34-.67l.11-4.06h1.77l.45,2.58-.28-.51c.43,.2,.88,.35,1.36,.46,.48,.11,.94,.16,1.4,.16,.53,0,1.01-.07,1.45-.21,.44-.14,.79-.36,1.05-.66s.38-.67,.38-1.11-.14-.8-.41-1.09c-.27-.29-.64-.52-1.1-.72s-.96-.37-1.51-.53c-.54-.16-1.09-.35-1.63-.57s-1.05-.48-1.52-.81c-.46-.33-.83-.74-1.1-1.25-.27-.51-.41-1.14-.41-1.91,0-1.01,.24-1.84,.73-2.49s1.14-1.14,1.97-1.46c.83-.33,1.76-.49,2.8-.49,.74,0,1.51,.08,2.31,.24,.8,.16,1.59,.39,2.39,.7l-.24,3.74h-1.82l-.45-2.33,.34,.34c-.36-.14-.74-.25-1.14-.33-.41-.08-.82-.12-1.23-.12-.48,0-.93,.06-1.35,.18-.41,.12-.74,.31-.99,.58-.25,.26-.37,.61-.37,1.04Z"/>
    <path class="cls-7" d="M306.26,55.59h-1.69l.62-.47v4.29l-.43-.6,2.46,.55v1.54h-6.66v-1.54l2.05-.6-.47,.64v-12l.53,.66-2.11-.55v-1.54l4.7-.11h1.94c1.18,0,2.15,.2,2.9,.61,.75,.41,1.31,.96,1.68,1.65,.36,.7,.54,1.49,.54,2.37,0,.95-.22,1.82-.65,2.59-.43,.78-1.1,1.38-1.99,1.83s-2.03,.66-3.43,.66Zm.45-7.54h-1.99l.47-.47v6.28l-.62-.47h1.71c.95,0,1.68-.26,2.18-.77,.5-.51,.75-1.2,.75-2.05,0-.78-.21-1.4-.63-1.85-.42-.45-1.04-.67-1.87-.67Z"/>
    <path class="cls-7" d="M325.24,47.41l-1.88,.64,.32-.47v11.68l-.32-.45,1.88,.55v1.54h-6.19v-1.54l1.86-.53-.28,.43v-11.68l.38,.47-1.96-.53v-1.54l6.19-.11v1.54Z"/>
    <path class="cls-7" d="M334.7,60.91v-1.54l2.37-.6-.55,.77v-11.94l.62,.47h-3.48l.68-.6-.58,2.71h-1.81v-4.31h12.22v4.31h-1.82l-.53-2.58,.64,.47h-3.48l.62-.47v11.94l-.53-.77,2.35,.6v1.54h-6.71Z"/>
    <path class="cls-7" d="M362.94,59.48l-.79-.7,1.84,.6v1.54h-6.13v-1.54l1.86-.53-.3,.43-.85-2.78,.47,.38h-5.64l.36-.36-.92,2.71-.09-.32,1.71,.47v1.54h-5.57v-1.54l1.77-.55-.68,.6,5.04-13.5,3.14-.08,4.78,13.65Zm-8.78-4.31l-.21-.41h4.59l-.3,.47-2.22-7.71h.7l-2.56,7.65Z"/>
    <path class="cls-7" d="M379.17,56.38h1.82v4.53h-10.7v-1.54l1.92-.55-.34,.6v-11.96l.34,.58-1.92-.51v-1.54l6.34-.11v1.54l-2.03,.62,.32-.58v11.72l-.47-.47h4.66l-.43,.49,.49-2.82Z"/>
  </g>
</svg>