<?xml version="1.0" encoding="UTF-8"?>
<svg id="Layer_1" data-name="Layer 1" xmlns="http://www.w3.org/2000/svg" xmlns:xlink="http://www.w3.org/1999/xlink" viewBox="0 0 100 100">
  <defs>
    <style>
      .cls-1 {
        clip-path: url(#clippath-20);
      }

      .cls-2 {
        clip-path: url(#clippath-11);
      }

      .cls-3 {
        clip-path: url(#clippath-16);
      }

      .cls-4 {
        clip-path: url(#clippath-2);
      }

      .cls-5 {
        clip-path: url(#clippath-13);
      }

      .cls-6 {
        clip-path: url(#clippath-25);
      }

      .cls-7 {
        clip-path: url(#clippath-15);
      }

      .cls-8 {
        clip-path: url(#clippath-6);
      }

      .cls-9 {
        clip-path: url(#clippath-26);
      }

      .cls-10 {
        clip-path: url(#clippath-7);
      }

      .cls-11 {
        clip-path: url(#clippath-21);
      }

      .cls-12 {
        clip-path: url(#clippath-1);
      }

      .cls-13 {
        clip-path: url(#clippath-4);
      }

      .cls-14 {
        clip-path: url(#clippath-12);
      }

      .cls-15 {
        clip-path: url(#clippath-24);
      }

      .cls-16 {
        clip-path: url(#clippath-22);
      }

      .cls-17 {
        clip-path: url(#clippath-9);
      }

      .cls-18 {
        clip-path: url(#clippath);
      }

      .cls-19 {
        fill: none;
      }

      .cls-20 {
        clip-path: url(#clippath-19);
      }

      .cls-21 {
        clip-path: url(#clippath-3);
      }

      .cls-22 {
        clip-path: url(#clippath-8);
      }

      .cls-23 {
        clip-path: url(#clippath-18);
      }

      .cls-24 {
        clip-path: url(#clippath-14);
      }

      .cls-25 {
        clip-path: url(#clippath-17);
      }

      .cls-26 {
        clip-path: url(#clippath-5);
      }

      .cls-27 {
        clip-path: url(#clippath-10);
      }

      .cls-28 {
        clip-path: url(#clippath-23);
      }

      .cls-29 {
        fill: #f2f2f2;
      }

      .cls-30 {
        fill: #616163;
      }

      .cls-31 {
        fill: #b42d2f;
      }
    </style>
    <clipPath id="clippath">
      <rect class="cls-19" x="15.6" y="18.81" width="68.53" height="62.62"/>
    </clipPath>
    <clipPath id="clippath-1">
      <rect class="cls-19" x="15.6" y="18.81" width="68.53" height="62.62"/>
    </clipPath>
    <clipPath id="clippath-2">
      <rect class="cls-19" x="15.6" y="18.81" width="68.53" height="62.62"/>
    </clipPath>
    <clipPath id="clippath-3">
      <rect class="cls-19" x="15.6" y="18.81" width="68.53" height="62.62"/>
    </clipPath>
    <clipPath id="clippath-4">
      <rect class="cls-19" x="15.6" y="18.81" width="68.53" height="62.62"/>
    </clipPath>
    <clipPath id="clippath-5">
      <rect class="cls-19" x="15.6" y="18.81" width="68.53" height="62.62"/>
    </clipPath>
    <clipPath id="clippath-6">
      <rect class="cls-19" x="15.6" y="18.81" width="68.53" height="62.62"/>
    </clipPath>
    <clipPath id="clippath-7">
      <rect class="cls-19" x="15.6" y="18.81" width="68.53" height="62.62"/>
    </clipPath>
    <clipPath id="clippath-8">
      <rect class="cls-19" x="15.6" y="18.81" width="68.53" height="62.62"/>
    </clipPath>
    <clipPath id="clippath-9">
      <rect class="cls-19" x="15.6" y="18.81" width="68.53" height="62.62"/>
    </clipPath>
    <clipPath id="clippath-10">
      <rect class="cls-19" x="15.6" y="18.81" width="68.53" height="62.62"/>
    </clipPath>
    <clipPath id="clippath-11">
      <rect class="cls-19" x="15.6" y="18.81" width="68.53" height="62.62"/>
    </clipPath>
    <clipPath id="clippath-12">
      <rect class="cls-19" x="15.6" y="18.81" width="68.53" height="62.62"/>
    </clipPath>
    <clipPath id="clippath-13">
      <rect class="cls-19" x="15.6" y="18.81" width="68.53" height="62.62"/>
    </clipPath>
    <clipPath id="clippath-14">
      <rect class="cls-19" x="15.6" y="18.81" width="68.53" height="62.62"/>
    </clipPath>
    <clipPath id="clippath-15">
      <rect class="cls-19" x="15.6" y="18.81" width="68.53" height="62.62"/>
    </clipPath>
    <clipPath id="clippath-16">
      <rect class="cls-19" x="15.6" y="18.81" width="68.53" height="62.62"/>
    </clipPath>
    <clipPath id="clippath-17">
      <rect class="cls-19" x="15.6" y="18.81" width="68.53" height="62.62"/>
    </clipPath>
    <clipPath id="clippath-18">
      <rect class="cls-19" x="15.6" y="18.81" width="68.53" height="62.62"/>
    </clipPath>
    <clipPath id="clippath-19">
      <rect class="cls-19" x="15.6" y="18.81" width="68.53" height="62.62"/>
    </clipPath>
    <clipPath id="clippath-20">
      <rect class="cls-19" x="15.6" y="18.81" width="68.53" height="62.62"/>
    </clipPath>
    <clipPath id="clippath-21">
      <rect class="cls-19" x="15.6" y="18.81" width="68.53" height="62.62"/>
    </clipPath>
    <clipPath id="clippath-22">
      <rect class="cls-19" x="15.6" y="18.81" width="68.53" height="62.62"/>
    </clipPath>
    <clipPath id="clippath-23">
      <rect class="cls-19" x="15.6" y="18.81" width="68.53" height="62.62"/>
    </clipPath>
    <clipPath id="clippath-24">
      <rect class="cls-19" x="15.6" y="18.81" width="68.53" height="62.62"/>
    </clipPath>
    <clipPath id="clippath-25">
      <rect class="cls-19" x="15.6" y="18.81" width="68.53" height="62.62"/>
    </clipPath>
    <clipPath id="clippath-26">
      <rect class="cls-19" x="15.6" y="18.81" width="68.53" height="62.62"/>
    </clipPath>
  </defs>
  <path class="cls-29" d="M90.15,35c-.6-2.61-1.45-5.15-2.56-7.58-3.89-8.47-10.48-13.84-19.27-16.66-5.98-1.9-12.14-2.44-19.08-2.54-1.27,.06-3.24,.09-5.22,.24-4.53,.33-8.98,1.08-13.31,2.54-9.46,3.21-16.04,9.43-19.57,18.82-1.6,4.28-2.46,8.71-2.84,13.25-.4,4.56-.4,9.13-.04,13.71,.34,4.18,1.06,8.3,2.39,12.28,2.95,8.85,8.53,15.35,17.17,19.09,2.75,1.19,5.61,2.03,8.53,2.62,6.04,1.25,12.15,1.41,18.29,1.1,4.22-.21,8.4-.83,12.47-2.02,5.61-1.63,10.63-4.26,14.72-8.51,3.91-4.07,6.34-8.95,7.84-14.33,1.23-4.38,1.77-8.87,1.97-13.42,.27-6.25-.09-12.46-1.5-18.58Z"/>
  <g class="cls-18">
    <g>
      <g class="cls-12">
        <path class="cls-30" d="M70.9,48.82c.29,.24,.45,.33,.58,.46,3.16,3.26,6.32,6.52,9.51,9.77,.67,.67,1.01,1.36,.95,2.35-.08,1.55-.02,3.1-.02,4.77-2.1-.87-4.09-1.79-6.14-2.53-3.75-1.35-7.49-2.73-11.31-3.83-3.62-1.06-7.33-1.83-11.04-2.62-1.66-.35-3.37-.45-5.08-.56-2.02-.14-4.04-.26-6.07-.25-4.7,.01-9.25,.8-13.47,3.22-2.39-2.64-4.53-5.4-4.7-9.12,1.41,.21,2.72,.43,4.02,.59,.79,.09,.86-.29,.49-.92-.8-1.4-2.02-2.35-3.37-3.13-.58-.33-.62-.74-.34-1.15,.8-1.21,1.65-2.39,2.56-3.51,.2-.25,.74-.31,1.12-.31,5.67-.02,11.32-.04,16.99,0,.85,0,1.29-.2,1.59-1.07,.82-2.39,1.79-4.74,2.68-7.1,.08-.24,.11-.48,.19-.95-5.75-.56-11.3,.06-16.76,1.74,2.37-1.97,5.02-3.4,8.05-4.09,5.83-1.35,10.86,.4,15.37,4,4.48,3.57,8.19,7.96,12.21,12.02,.33,.33,.49,.95,.49,1.43-.01,3.49-.08,6.99-.15,10.49-.01,.87,.68,.79,1.18,.91,.08,.02,.42-.54,.42-.83,.06-3.2,.05-6.38,.05-9.77m-3.59,3.88c.12-.04,.25-.06,.36-.09,.05-1.38,.05-2.75,.14-4.13,.06-.87-.21-1.49-.85-2.08-2.79-2.59-5.55-5.21-8.32-7.82-1.41-1.33-2.74-2.74-4.23-3.96-1.79-1.47-2.96-1.21-3.47,.67-.55,2.09-.87,4.26-1.21,6.39-.05,.33,.24,.87,.53,1.06,1.68,1.06,3.42,2.05,5.14,3.06,2.23,1.32,4.47,2.64,6.7,3.94,1.73,1,3.47,1.97,5.21,2.96m11.87,8.72c.01-1.41,.39-2.57-.81-3.63-1.82-1.62-3.47-3.43-5.22-5.14-.26-.25-.69-.33-1.05-.49-.08,.32-.2,.63-.24,.96-.04,.32,.02,.63-.01,.95-.16,1.21,.14,2.15,1.34,2.74,.49,.24,.88,.71,1.33,1.05,1.49,1.14,2.99,2.28,4.65,3.56m-40.71-10.2c.85-.21,1.73-.29,2.48-.65,1.35-.62,2.69-1.32,3.29-2.84,.32-.82,.13-1.13-.73-1.15-2.41-.06-4.38,.79-5.76,2.81-.29,.42-.47,.93-.71,1.39,.47,.15,.93,.29,1.42,.45"/>
      </g>
      <g class="cls-4">
        <path class="cls-31" d="M23.23,59.4c-1.14-1.92-2.47-3.75-3.39-5.77-1.39-3.07-2.12-6.35-1.97-9.76,.18-4.54,1.6-8.69,4.18-12.41,2.54-3.66,5.91-6.34,9.96-8.15,2.81-1.26,5.75-1.96,8.86-2.19,5.95-.41,11.33,1.07,16.24,4.34,3.73,2.47,6.45,5.79,8.18,9.97-.53-.59-1.05-1.18-1.58-1.75-3.36-3.7-7.53-6.02-12.35-7.21-3.03-.75-6.1-.81-9.22-.46-4.02,.46-7.69,1.83-10.98,4.11-5.02,3.47-8.31,8.17-9.6,14.19-1.1,5.11-.42,9.98,1.95,14.62,.04,.07,.04,.18,.05,.26-.12,.07-.24,.13-.34,.2"/>
      </g>
      <g class="cls-21">
        <polygon class="cls-30" points="34.81 71.2 29.59 71.2 29.59 62.52 34.61 62.52 34.61 64.11 31.55 64.11 31.55 66.04 34.4 66.04 34.4 67.63 31.55 67.63 31.55 69.62 34.81 69.62 34.81 71.2"/>
      </g>
      <g class="cls-13">
        <path class="cls-30" d="M45.31,71.2h-2.25l-1.35-2.23c-.11-.16-.2-.32-.29-.46-.09-.13-.19-.25-.28-.34s-.19-.16-.29-.22c-.11-.05-.21-.07-.34-.07h-.53v3.33h-1.95v-8.69h3.1c2.1,0,3.16,.79,3.16,2.36,0,.31-.05,.59-.14,.83-.09,.26-.22,.48-.4,.69-.16,.21-.38,.39-.61,.53-.24,.15-.51,.27-.8,.35v.02c.13,.04,.26,.11,.38,.2,.12,.09,.24,.2,.35,.32,.12,.12,.22,.25,.33,.39,.11,.14,.2,.27,.28,.41l1.63,2.57Zm-5.32-7.22v2.42h.85c.42,0,.75-.12,1.01-.36,.26-.25,.39-.55,.39-.92,0-.76-.46-1.14-1.36-1.14h-.88Z"/>
      </g>
      <g class="cls-26">
        <path class="cls-30" d="M57.85,71.2h-1.93v-5.2c0-.56,.02-1.18,.07-1.86h-.05c-.11,.53-.19,.92-.27,1.15l-2.03,5.91h-1.6l-2.07-5.84c-.07-.16-.16-.58-.28-1.22h-.06c.05,.86,.08,1.61,.08,2.26v4.81h-1.76v-8.69h2.87l1.77,5.15c.14,.41,.25,.82,.31,1.25h.04c.11-.48,.22-.89,.34-1.26l1.77-5.14h2.8s0,8.67,0,8.67Z"/>
      </g>
      <g class="cls-8">
        <path class="cls-30" d="M67.88,70.9c-.63,.31-1.46,.46-2.48,.46-1.33,0-2.39-.39-3.14-1.18-.76-.79-1.14-1.82-1.14-3.13,0-1.39,.43-2.52,1.29-3.39s1.97-1.29,3.34-1.29c.85,0,1.56,.11,2.14,.32v1.88c-.58-.35-1.25-.52-1.99-.52-.81,0-1.47,.26-1.97,.76-.51,.52-.75,1.21-.75,2.08s.24,1.5,.71,2.01c.47,.49,1.1,.75,1.9,.75s1.46-.19,2.09-.55c0,0,0,1.79,0,1.79Z"/>
      </g>
      <g class="cls-10">
        <path class="cls-31" d="M30.2,76.23c0,.15-.01,.29-.01,.46-.01,.24-.12,.45-.29,.65-.29,.31-.53,.41-.74,.41-.24,0-.51-.11-.81-.33l.05-.09c.14,.06,.27,.08,.41,.08,.32,0,.6-.15,.87-.38,.21-.22,.36-.45,.36-.61,0-.11-.11-.25-.24-.39,.02-.12,.06-.26,.11-.41,.39-.16,.79-.31,1.21-.45,.04,.25,.12,.48,.42,.62,.19-.29,.39-.58,.68-.83,.21-.19,.46-.34,.75-.34,.48,0,.76,.35,.76,.74,0,.19-.07,.4-.18,.6h.45v.43h-.08c-.34,0-.65-.04-1-.12-.2,.06-.43,.12-.78,.12-.25,0-.46-.04-.62-.11-.11,.14-.2,.31-.28,.46l-.07-.04c.04-.16,.09-.34,.16-.53-.2-.15-.29-.32-.32-.52-.33,.11-.61,.21-.82,.32-.01,.09,0,.18,0,.25m2.12-.26c.34,0,.69-.08,.87-.15,.16-.07,.27-.15,.27-.25-.05-.29-.33-.51-.62-.51-.4,0-.76,.33-1.13,.83,.12,.05,.31,.07,.61,.07"/>
      </g>
      <g class="cls-22">
        <path class="cls-31" d="M34.07,75.98c.25,0,.45-.18,.56-.6,.04-.13,.13-.27,.25-.41,.13-.12,.26-.2,.42-.2,.41,0,.65,.56,.71,1.15-.07,.31-.2,.43-.35,.43-.33,0-.67-.15-1-.4h-.02c-.08,.29-.28,.43-.58,.43h-.06c-.19,0-.24-.13-.24-.22,0-.08,.06-.2,.24-.2h.07Zm1.18-.12c.13,.06,.27,.09,.4,.09,.05,0,.09-.01,.11-.04-.09-.51-.32-.73-.53-.73-.19,0-.35,.11-.45,.33,.09,.15,.26,.26,.47,.34"/>
      </g>
      <g class="cls-17">
        <path class="cls-31" d="M40.18,76.41h-.06c-.31,0-.55-.13-.68-.55h-.01c-.02,.13-.09,.24-.25,.32-.22,.13-.45,.22-.67,.22-.38,0-.59-.22-.59-.62,0-.08,0-.16,.01-.25h.13c.01,.27,.15,.43,.47,.43,.18,0,.39-.08,.55-.16,.13-.07,.22-.18,.22-.25,0-.22-.12-.67-.28-1.25,.08-.12,.15-.24,.24-.34h.02c.13,.49,.22,1.01,.32,1.5,.06,.33,.28,.51,.53,.51h.06v.43h-.01Z"/>
      </g>
      <g class="cls-27">
        <path class="cls-31" d="M40.24,75.98c.28,0,.52-.01,.66-.06,.12-.05,.19-.09,.19-.15,0-.15-.16-.48-.34-.83,.08-.14,.16-.27,.25-.38h.01c.15,.27,.34,.69,.34,1.02,0,.25-.11,.45-.24,.62-.15,.15-.39,.2-.91,.2h-.04c-.19,0-.24-.13-.24-.22,0-.08,.06-.2,.24-.2h.07Zm.33,1.77c-.14-.13-.26-.24-.39-.35,.08-.12,.18-.24,.27-.32,.14,.11,.25,.22,.39,.36-.12,.13-.18,.21-.27,.31m.65-.05c-.14-.13-.26-.24-.39-.35,.08-.12,.18-.24,.27-.32,.14,.11,.25,.22,.39,.36-.12,.13-.18,.22-.27,.31"/>
      </g>
      <g class="cls-2">
        <path class="cls-31" d="M44.24,76.41h-.06c-.31,0-.55-.13-.68-.55h-.01c-.02,.13-.09,.24-.25,.32-.22,.13-.45,.22-.67,.22-.38,0-.59-.22-.59-.62,0-.08,0-.16,.01-.25h.13c.01,.27,.15,.43,.47,.43,.18,0,.39-.08,.55-.16,.13-.07,.22-.18,.22-.25,0-.22-.12-.67-.28-1.25,.08-.12,.15-.24,.24-.34h.02c.13,.49,.22,1.01,.32,1.5,.06,.33,.28,.51,.53,.51h.06v.43h-.01Z"/>
      </g>
      <g class="cls-14">
        <path class="cls-31" d="M44.45,75.98c.54,0,1.1-.19,1.79-.61h0c-.39-.15-.74-.25-1.06-.25-.19,0-.33,.06-.42,.16l.04,.16-.11,.31h-.04l-.16-.45c.02-.38,.33-.6,.73-.6,.22,0,.58,.08,1.1,.29,.16,.06,.36,.11,.58,.11h.28s-.18,.36-.18,.36c-.28-.01-.47,.06-.58,.13l-.56,.36c-.45,.29-.93,.45-1.46,.45h-.18c-.19,0-.24-.13-.24-.22,0-.08,.06-.2,.24-.2h.22Z"/>
      </g>
      <g class="cls-5">
        <path class="cls-31" d="M51.76,72.93c.04,.58,.05,1.22,.05,2.12,0,.25,.01,.52,.13,.73,.07,.13,.22,.21,.38,.21h.06v.43h-.08c-.34,0-.59-.18-.69-.62h-.01c-.08,.13-.22,.27-.47,.39-.35,.18-.72,.24-1.05,.24-.49,0-1.03-.29-1.03-1.06,0-.26,.07-.51,.19-.73l.14,.05c-.07,.15-.12,.33-.12,.49,0,.53,.39,.79,.92,.79,.42,0,.74-.12,.95-.22,.2-.09,.32-.2,.38-.29,.01-.06,.01-.13,.01-.19,0-.63-.06-1.39-.11-2,.09-.11,.2-.22,.32-.33h.05Zm-1.06,1.13h-.04c-.2,.07-.32,.18-.36,.32h.27c.24,0,.34,.09,.34,.26,0,.33-.32,.48-.61,.48-.08,0-.15,0-.22-.01l-.22-.13v-.02c.43-.01,.86-.13,.86-.26,0-.04-.08-.04-.31-.04-.21,0-.29,0-.29-.05v-.13c0-.14,.08-.29,.21-.46,.13-.15,.29-.27,.38-.27,.06,0,.08,.02,.08,.08s-.04,.15-.07,.25h-.01v-.02Z"/>
      </g>
      <g class="cls-24">
        <path class="cls-31" d="M54.97,76.41h-.07c-.41,0-.63-.22-.87-.54-.11-.14-.21-.28-.29-.38h-.01c0,.53-.29,.92-1.25,.92h-.09c-.19,0-.24-.13-.24-.22,0-.08,.06-.2,.24-.2h.13c.27,0,.6-.05,.81-.2,.07-.05,.16-.12,.16-.16,0-.07-.04-.15-.07-.22-.14-.31-.47-.66-.82-1.02-.09-.09-.16-.18-.21-.22-.01-.06-.02-.12-.02-.19,0-.09,.04-.19,.09-.29,.02-.05,.08-.09,.12-.13,.35-.22,1.14-.49,2.07-.79v.02c-.06,.14-.14,.28-.25,.41-.2,.05-.49,.15-.76,.25-.4,.15-.79,.31-1.01,.42h0c.18,.13,.38,.21,.52,.27l-.11,.16c.36,.33,.79,.8,1.23,1.33,.19,.22,.38,.34,.65,.34h.06v.45h0Z"/>
      </g>
      <g class="cls-7">
        <path class="cls-31" d="M58.4,76.41h-.08c-.41,0-.61-.13-.69-.32h-.02c-.19,.22-.38,.32-.58,.32-.14,0-.32-.05-.36-.28h-.01c-.15,.16-.33,.28-.58,.28-.19,0-.31-.08-.32-.28h-.01c-.2,.24-.48,.28-.72,.28h-.06c-.19,0-.24-.13-.24-.22,0-.08,.06-.2,.24-.2h.12c.31,0,.54-.08,.71-.32l.16-.26,.26-.09h.01c-.13,.24-.22,.39-.22,.49s.08,.16,.18,.16,.2-.04,.29-.11c.08-.06,.16-.18,.22-.29l.08-.2,.26-.12h.01c-.11,.27-.14,.39-.14,.52,0,.09,.06,.2,.19,.2,.11,0,.18-.04,.24-.07,.11-.07,.15-.18,.2-.32,.01-.06,.04-.12,.07-.27l.26-.18h.01c-.05,.16-.08,.35-.08,.47,0,.27,.24,.36,.55,.36h.07v.43h-.01Z"/>
      </g>
      <g class="cls-3">
        <path class="cls-31" d="M58.47,75.98c.11,0,.24-.01,.38-.09,.12-.07,.18-.19,.18-.36-.01-.54-.05-1.13-.09-1.74-.01-.15-.04-.29-.04-.42,0-.07,.04-.15,.11-.22,.05-.06,.11-.12,.19-.19h.02c-.01,.24,.09,.49,.27,.78-.06,.06-.13,.12-.21,.18,.01,.39,.05,.79,.05,1.16s-.04,.65-.13,.85c-.07,.18-.15,.32-.31,.39-.13,.07-.29,.11-.42,.11h-.05c-.19,0-.24-.13-.24-.22,0-.08,.06-.2,.24-.2,0,0,.06,0,.06,0Z"/>
      </g>
      <g class="cls-25">
        <path class="cls-31" d="M64.44,75.98v.43h-.2c.01,.09,.01,.18,.01,.25,0,.11-.11,.35-.15,.42-.43,.39-1.07,.62-1.56,.62-.43,0-.73-.15-.92-.36-.21-.24-.29-.55-.29-.94,0-.34,.13-.79,.32-1.1l.13,.06c-.14,.34-.2,.62-.2,.85,0,.28,.09,.55,.27,.73,.2,.21,.49,.32,.81,.32s.67-.09,1.07-.29c.15-.08,.27-.16,.31-.24-.08-.16-.45-.31-.98-.31l-.02-.05,.24-.39s1.18,0,1.18,0Zm-2.05,2.7c-.14-.13-.26-.24-.39-.35,.08-.12,.18-.24,.27-.32,.14,.11,.25,.22,.39,.36-.11,.14-.18,.22-.27,.31m.65-.04c-.14-.13-.26-.24-.39-.35,.08-.12,.18-.24,.27-.32,.14,.11,.25,.22,.39,.36-.11,.13-.18,.21-.27,.31"/>
      </g>
      <g class="cls-23">
        <path class="cls-31" d="M64.51,75.98c.26,0,.53-.11,.58-.29l.09-.36,.24-.16,.02,.02c-.05,.18-.07,.32-.07,.39,0,.12,.04,.21,.11,.28,.11,.08,.24,.13,.41,.13h.06v.43h-.08c-.33,0-.58-.09-.69-.34h-.01c-.12,.22-.38,.34-.67,.34h-.06c-.19,0-.24-.13-.24-.22,0-.08,.06-.2,.24-.2h.08Zm.62,1.06c.14,.11,.27,.22,.4,.36-.07,.12-.16,.24-.28,.33-.13-.13-.26-.24-.4-.34,.11-.13,.19-.25,.28-.35"/>
      </g>
      <g class="cls-20">
        <path class="cls-31" d="M66.2,75.98l.26-.31c.05-.18,.05-.32,.05-.67,0-.43-.05-1.15-.08-1.54-.01-.11-.02-.22-.02-.33,0-.15,.09-.26,.26-.39l.02,.02c0,.2,.09,.43,.28,.74l-.22,.16c.01,.36,.04,.73,.04,1.08,0,.29-.05,.49-.12,.67h.01c.25-.27,.48-.48,.71-.61,.19-.12,.41-.19,.62-.19,.42,0,.8,.35,.8,.82,0,.18-.08,.34-.18,.49,.08,.01,.22,.01,.34,.01h.13v.43h-.08c-.39,0-.74-.04-1.08-.11-.46,.08-1.06,.11-1.75,.11h-.24c-.19,0-.24-.13-.24-.22,0-.08,.06-.2,.24-.2h.26Zm.6,.01c.88,0,1.59-.06,1.74-.32,0-.28-.32-.58-.69-.58-.43,0-.82,.32-1.35,.88h.31Z"/>
      </g>
      <g class="cls-1">
        <path class="cls-31" d="M69.19,75.98c.11,0,.24-.01,.38-.09,.12-.07,.18-.19,.18-.36-.01-.54-.05-1.13-.09-1.74-.01-.15-.04-.29-.04-.42,0-.07,.04-.15,.11-.22,.05-.06,.11-.12,.19-.19h.02c-.01,.24,.09,.49,.27,.78-.06,.06-.13,.12-.21,.18,.01,.39,.05,.79,.05,1.16s-.04,.65-.13,.85c-.07,.18-.15,.32-.31,.39-.13,.07-.29,.11-.42,.11h-.05c-.19,0-.24-.13-.24-.22,0-.08,.06-.2,.24-.2,0,0,.06,0,.06,0Z"/>
      </g>
      <g class="cls-11">
        <path class="cls-31" d="M70.77,76.47c.04-.21,.04-.45,.04-.67v-.33c0-.61-.07-1.5-.12-2.09,.09-.12,.22-.26,.33-.35h.04c.07,.74,.08,1.59,.08,2.37,0,.2-.01,.41-.02,.55-.01,.19-.11,.33-.29,.54l-.05-.02Z"/>
      </g>
      <g class="cls-16">
        <path class="cls-31" d="M74.2,75.26c.19,.46,.36,.73,.75,.73h.06v.43h-.07c-.15,0-.26-.04-.34-.11h-.01s.01,.08,.01,.12c0,.15-.05,.36-.13,.52-.27,.47-.55,.67-.8,.67s-.56-.12-.83-.26l.05-.12c.09,.05,.21,.07,.39,.07,.45,0,1.03-.51,1.12-1.01-.01-.04-.05-.09-.09-.15-.13-.19-.21-.34-.29-.51,.07-.15,.13-.28,.19-.39h.01Zm-.29-1.18c.14,.11,.27,.22,.4,.36-.07,.12-.16,.24-.28,.33-.13-.13-.26-.24-.4-.34,.09-.13,.19-.25,.28-.35"/>
      </g>
      <g class="cls-28">
        <path class="cls-31" d="M77.1,72.8c-.07,.14-.16,.27-.25,.41-.18,.05-.36,.11-.54,.16-.35,.13-.72,.27-1.1,.43h0s.55,.22,.55,.22l-.08,.16c.52,.42,.86,.85,.86,1.2,0,.32-.08,.56-.21,.69-.21,.19-.55,.32-1.18,.32h-.13c-.19,0-.24-.13-.24-.22,0-.08,.06-.2,.24-.2h.21c.34,0,.67-.04,.89-.18,.12-.07,.19-.14,.19-.18,0-.15-.11-.33-.24-.51-.15-.2-.46-.53-1.01-.95-.09-.07-.12-.2-.12-.31,0-.07,.04-.14,.08-.21,.04-.06,.11-.13,.25-.2,.39-.2,1.03-.42,1.81-.67h.01Z"/>
      </g>
      <g class="cls-15">
        <path class="cls-31" d="M77.74,75.26c.19,.46,.36,.73,.75,.73h.06v.43h-.06c-.15,0-.26-.04-.34-.11h-.01s.01,.08,.01,.12c0,.15-.05,.36-.13,.52-.27,.47-.55,.67-.8,.67s-.56-.12-.83-.26l.05-.12c.09,.05,.21,.07,.39,.07,.45,0,1.03-.51,1.12-1.01-.01-.04-.05-.09-.09-.15-.13-.19-.21-.34-.29-.51,.07-.15,.13-.28,.19-.39h0Z"/>
      </g>
      <g class="cls-6">
        <path class="cls-31" d="M79.37,76.12c-.24,.2-.45,.29-.76,.29h-.05c-.19,0-.24-.13-.24-.22,0-.08,.06-.2,.24-.2h.04c.34,0,.55-.09,.76-.24-.06-.65-.07-1.32-.07-1.85,0-.13-.02-.35-.02-.51,0-.11,.02-.2,.11-.29,.05-.06,.12-.12,.19-.18l.04,.02c-.01,.06-.01,.11-.01,.14,.01,.24,.12,.46,.26,.68l-.25,.18c0,1.06,.01,1.34,.06,1.63h.01c.14-.07,.27-.11,.43-.11,.14,0,.28,.07,.39,.19,.11,.12,.16,.29,.16,.46,0,.41-.28,.65-.53,.65-.32,0-.58-.25-.71-.63l-.05-.02Zm.87,.26c.06,0,.12-.02,.16-.06,0-.12-.05-.22-.13-.32-.06-.08-.16-.15-.32-.15-.09,0-.2,.02-.27,.07,.09,.27,.34,.46,.55,.46"/>
      </g>
      <g class="cls-9">
        <path class="cls-31" d="M81.24,76.47c.04-.21,.04-.45,.04-.67v-.33c0-.61-.07-1.5-.12-2.09,.09-.12,.22-.26,.33-.35h.04c.07,.74,.08,1.59,.08,2.37,0,.2-.01,.41-.02,.55-.01,.19-.11,.33-.29,.54l-.05-.02Z"/>
      </g>
    </g>
  </g>
</svg>